<svg width="20" height="20" viewBox="0 0 20 20" fill="none" xmlns="http://www.w3.org/2000/svg">
<path d="M11.82 20H8.18004C7.71016 20 7.3036 19.673 7.20304 19.214L6.79604 17.33C6.25309 17.0921 5.73827 16.7946 5.26104 16.443L3.42404 17.028C2.97604 17.1709 2.48903 16.9823 2.25404 16.575L0.43004 13.424C0.197628 13.0165 0.277699 12.5025 0.623041 12.185L2.04804 10.885C1.98324 10.2961 1.98324 9.70189 2.04804 9.113L0.623041 7.816C0.27719 7.49837 0.197088 6.98372 0.43004 6.576L2.25004 3.423C2.48503 3.0157 2.97204 2.82714 3.42004 2.97L5.25704 3.555C5.5011 3.37416 5.75517 3.20722 6.01804 3.055C6.27038 2.91269 6.53008 2.78385 6.79604 2.669L7.20404 0.787C7.30411 0.327969 7.71023 0.000494393 8.18004 0H11.82C12.2899 0.000494393 12.696 0.327969 12.796 0.787L13.208 2.67C13.4888 2.79352 13.7623 2.93308 14.027 3.088C14.2743 3.23078 14.5134 3.38736 14.743 3.557L16.581 2.972C17.0287 2.82967 17.5152 3.01816 17.75 3.425L19.57 6.578C19.8025 6.98548 19.7224 7.49951 19.377 7.817L17.952 9.117C18.0168 9.70589 18.0168 10.3001 17.952 10.889L19.377 12.189C19.7224 12.5065 19.8025 13.0205 19.57 13.428L17.75 16.581C17.5152 16.9878 17.0287 17.1763 16.581 17.034L14.743 16.449C14.5105 16.6203 14.2688 16.7789 14.019 16.924C13.7569 17.0759 13.4864 17.2131 13.209 17.335L12.796 19.214C12.6956 19.6726 12.2896 19.9996 11.82 20ZM9.99604 6C7.7869 6 5.99604 7.79086 5.99604 10C5.99604 12.2091 7.7869 14 9.99604 14C12.2052 14 13.996 12.2091 13.996 10C13.996 7.79086 12.2052 6 9.99604 6Z" fill="#EDF1F7"/>
</svg>
