<svg width="74" height="74" viewBox="0 0 74 74" fill="none" xmlns="http://www.w3.org/2000/svg">
<path d="M7.66665 15C5.72173 15 3.85646 15.7726 2.4812 17.1479C1.10593 18.5231 0.333313 20.3884 0.333313 22.3333V66.3333C0.333313 70.3666 3.63331 73.6666 7.66665 73.6666H51.6666C53.6116 73.6666 55.4768 72.894 56.8521 71.5188C58.2274 70.1435 59 68.2782 59 66.3333H7.66665V15ZM66.3333 0.333313H22.3333C20.3884 0.333313 18.5231 1.10593 17.1479 2.4812C15.7726 3.85646 15 5.72173 15 7.66665V51.6666C15 53.6116 15.7726 55.4768 17.1479 56.8521C18.5231 58.2274 20.3884 59 22.3333 59H66.3333C68.2782 59 70.1435 58.2274 71.5188 56.8521C72.894 55.4768 73.6666 53.6116 73.6666 51.6666V7.66665C73.6666 5.72173 72.894 3.85646 71.5188 2.4812C70.1435 1.10593 68.2782 0.333313 66.3333 0.333313ZM48 51.6666H22.3333V26H48V51.6666ZM66.3333 51.6666H55.3333V26H66.3333V51.6666ZM66.3333 18.6666H22.3333V7.66665H66.3333V18.6666Z" fill="#F3CD03"/>
</svg>
