<svg width="40" height="40" viewBox="0 0 40 40" fill="none" xmlns="http://www.w3.org/2000/svg">
<path d="M37.9211 0.506592H1.73476C0.864516 0.506592 0.161438 1.20967 0.161438 2.07991V38.2663C0.161438 39.1365 0.864516 39.8396 1.73476 39.8396H37.9211C38.7914 39.8396 39.4945 39.1365 39.4945 38.2663V2.07991C39.4945 1.20967 38.7914 0.506592 37.9211 0.506592ZM11.8286 34.0232H5.99256V15.2516H11.8286V34.0232ZM8.91303 12.6851C8.24401 12.6851 7.59001 12.4867 7.03374 12.115C6.47747 11.7433 6.04391 11.215 5.78788 10.5969C5.53186 9.97882 5.46487 9.29869 5.59539 8.64252C5.72591 7.98635 6.04808 7.38362 6.52115 6.91055C6.99422 6.43748 7.59695 6.11531 8.25311 5.98479C8.90928 5.85427 9.58942 5.92126 10.2075 6.17729C10.8256 6.43331 11.3539 6.86687 11.7256 7.42314C12.0973 7.97942 12.2957 8.63341 12.2957 9.30244C12.2908 11.1708 10.7764 12.6851 8.91303 12.6851ZM33.6781 34.0232H27.847V24.8931C27.847 22.715 27.8076 19.9174 24.8134 19.9174C21.7798 19.9174 21.3128 22.2872 21.3128 24.7357V34.0232H15.4866V15.2516H21.0817V17.818H21.1604C21.9372 16.343 23.8399 14.7845 26.6817 14.7845C32.5915 14.7845 33.6781 18.6735 33.6781 23.7278V34.0232Z" fill="white"/>
</svg>
