<svg width="992" height="302" viewBox="0 0 992 302" fill="none" xmlns="http://www.w3.org/2000/svg">
<g clip-path="url(#clip0_46:1863)">
<path d="M41.467 188.174L16.1321 178.839C15.7588 178.701 15.3462 178.718 14.985 178.884C14.6238 179.051 14.3436 179.354 14.206 179.728L4.87085 205.063C4.7333 205.436 4.74968 205.849 4.91637 206.21C5.08307 206.571 5.38643 206.851 5.75972 206.989L31.0946 216.324C31.4679 216.461 31.8805 216.445 32.2417 216.278C32.6029 216.112 32.8831 215.808 33.0207 215.435L42.3559 190.1C42.4934 189.727 42.477 189.314 42.3103 188.953C42.1436 188.592 41.8403 188.312 41.467 188.174V188.174ZM30.7243 212.99L8.20445 204.692L16.5024 182.172L39.0222 190.47L30.7243 212.99Z" fill="#0285E4"/>
</g>
<path d="M147.613 8.28139V0.58139H139.68V3.33139H121.547V0.58139H113.613V8.28139H116.447V25.8814H113.613V33.5814H121.547V30.8314H139.68V33.5814H147.613V25.8814H144.78V8.28139H147.613ZM141.947 2.78139H145.347V6.08139H141.947V2.78139ZM115.88 6.08139V2.78139H119.28V6.08139H115.88ZM119.28 31.3814H115.88V28.0814H119.28V31.3814ZM145.347 28.0814V31.3814H141.947V28.0814H145.347ZM142.513 23.6814V25.8814H139.68V28.6314H121.547V25.8814H118.713V8.28139H121.547V5.53139H139.68V8.28139H142.513V23.6814Z" fill="#F3CD03"/>
<path d="M129.458 11.4724L125.665 21.0814H127.782L128.513 19.2294H132.714L133.445 21.0814H135.562L131.769 11.4724H129.458ZM129.289 17.2604L130.613 13.9074L131.937 17.2604H129.289Z" fill="#F3CD03"/>
<path d="M872.31 88.3933L875.97 32.4845L921.79 64.7292L872.31 88.3933ZM916.55 64.2574L878.288 37.3316L875.232 84.018L916.55 64.2574Z" fill="#112D57"/>
<g clip-path="url(#clip1_46:1863)">
<path d="M964.999 242.238L972.367 239.835L973.969 244.747L966.601 247.15L969.004 254.518L964.092 256.12L961.689 248.752L954.321 251.155L952.719 246.243L960.087 243.84L957.684 236.472L962.596 234.87L964.999 242.238ZM968.899 270.856L966.495 263.488L971.407 261.886L975.413 274.166L936.117 286.983L925.703 255.055L945.351 248.647L946.953 253.559L932.217 258.365L939.427 280.469L968.899 270.856Z" fill="#0285E4"/>
</g>
<circle cx="685.113" cy="205.081" r="28" stroke="#F3CD03" stroke-width="5"/>
<defs>
<clipPath id="clip0_46:1863">
<rect width="36" height="36" fill="white" transform="translate(12.9469 174.468) rotate(20.2274)"/>
</clipPath>
<clipPath id="clip1_46:1863">
<rect width="62" height="62" fill="white" transform="translate(913.529 242.722) rotate(-18.0648)"/>
</clipPath>
</defs>
</svg>
