<svg width="88" height="101" viewBox="0 0 88 101" fill="none" xmlns="http://www.w3.org/2000/svg">
<path d="M39.8554 1.66295C41.8 0.532622 44.9625 0.514868 46.917 1.62153L84.4643 22.8532C86.4286 23.9579 88 26.6881 88 28.9408V71.8047C88 74.0614 86.4168 76.7935 84.4643 77.9199L46.9091 99.3706C44.9586 100.487 41.802 100.469 39.8671 99.3292L3.50821 77.9436C1.57143 76.8034 0 74.0496 0 71.8047V28.9408C0 26.6841 1.57143 23.9382 3.51804 22.8098L39.8554 1.66295ZM24.6518 41.0825C21.5207 41.0825 18.3877 41.1102 15.2566 41.1102V61.1228H19.0143V55.2344H24.6518C34.4162 55.2344 34.3868 41.0825 24.6518 41.0825ZM52.1793 60.8663L46.143 54.033C53.4109 52.5516 52.9787 41.1654 44.0079 41.1102C40.8473 41.1102 37.6887 41.0825 34.5282 41.0825V61.1228H38.2859V54.4335H41.9021L47.7086 61.1228H52.1793V60.8663ZM44.0098 44.6274C48.5945 44.6274 48.5788 51.0306 44.0098 51.0306H38.2879V44.6274H44.0098ZM25.2391 44.3118C29.3995 44.3118 29.3857 51.9756 25.2391 51.9756H18.8925V44.3138L25.2391 44.3118ZM63.0811 40.7117C49.6336 40.7117 49.1346 61.5824 63.0811 61.5824C76.7289 61.5804 76.7152 40.7117 63.0811 40.7117ZM63.0811 44.1421C71.7475 44.1421 71.8811 58.1204 63.0811 58.1204C54.2811 58.1204 54.3538 44.1421 63.0811 44.1421Z" fill="#F3CD03"/>
<rect x="14" y="36" width="61" height="30" fill="#F3CD03"/>
<ellipse cx="45" cy="35" rx="13" ry="12" fill="white"/>
<path d="M27.089 67.9997C27.1126 63.2259 29.0316 58.657 32.4239 55.298C35.8162 51.9391 40.4039 50.0653 45.1778 50.0889C49.9516 50.1125 54.5205 52.0316 57.8795 55.4239C61.2384 58.8162 63.1122 63.4039 63.0886 68.1777L45.0888 68.0887L27.089 67.9997Z" fill="white"/>
</svg>
